<?xml version="1.0" encoding="UTF-8"?>
<svg width="120" height="40" viewBox="0 0 120 40" fill="none" xmlns="http://www.w3.org/2000/svg">
  <path d="M20.8 0H0v40h20.8c11.5 0 20.8-9.3 20.8-20.8S32.3 0 20.8 0zm0 36H4V4h16.8c9.1 0 16.4 7.3 16.4 16.4S29.9 36 20.8 36z" fill="#000000"/>
  <path d="M8.4 20c0-6.8 5.5-12.3 12.3-12.3 6.8 0 12.3 5.5 12.3 12.3 0 6.8-5.5 12.3-12.3 12.3-6.8 0-12.3-5.5-12.3-12.3zm20.6 0c0-4.6-3.7-8.3-8.3-8.3-4.6 0-8.3 3.7-8.3 8.3 0 4.6 3.7 8.3 8.3 8.3 4.6 0 8.3-3.7 8.3-8.3z" fill="#000000"/>
  <path d="M45.6 8h-4v24h4V8zm8.4 0h-4v24h4V8zm8.4 0h-4v24h4V8zm8.4 0h-4v24h4V8zm8.4 0h-4v24h4V8zm8.4 0h-4v24h4V8zm8.4 0h-4v24h4V8zm8.4 0h-4v24h4V8z" fill="#000000"/>
</svg> 